<!-- sample rectangle -->
<svg width="250" height="250" xmlns="http://www.w3.org/2000/svg">
  <g><svg viewBox="0 0 244.43135999999998 244.43135999999998" height="244.43135999999998" width="244.43135999999998"><g><svg viewBox="0 0 244.43135999999998 244.43135999999998" height="244.43135999999998" width="244.43135999999998"><g transform="matrix(1,0,0,1,74.25027598788563,64.60265593644992)"><svg viewBox="0 0 95.93080802422874 115.22604812710014" height="115.22604812710014" width="95.93080802422874"><g><svg xmlns="http://www.w3.org/2000/svg" xml:space="preserve" viewBox="0 0.05185888707637787 91.58999633789062 110.01213836669922" x="0" y="0" height="115.22604812710014" width="95.93080802422874" class="icon-b-0" data-fill-palette-color="accent" id="b-0"><path d="M74.812 14.155v5.839a7.9 7.9 0 0 1 2.263 5.536 7.951 7.951 0 0 1-15.901 0c0-2.157 0.867-4.106 2.263-5.536v-5.839H28.152v5.839a7.9 7.9 0 0 1 2.263 5.536 7.95 7.95 0 0 1-7.95 7.951 7.95 7.95 0 0 1-7.947-7.951c0-2.157 0.865-4.106 2.259-5.536v-5.839H0v95.909h91.59V14.155z m9.422 88.203H7.358v-64.73h76.876z" fill="#010c80" data-fill-palette-color="accent"></path><path d="M68.404 47.278h9.158v9.504h-9.158zM55.013 47.278h9.157v9.504h-9.157zM41.62 47.278h9.154v9.504H41.62zM68.404 60.526h9.158v9.504h-9.158zM55.013 60.526h9.157v9.504h-9.157zM41.62 60.526h9.154v9.504H41.62zM28.226 60.526h9.158v9.504h-9.158zM14.834 60.526h9.156v9.504h-9.156zM68.404 73.773h9.158v9.506h-9.158zM55.013 73.773h9.157v9.506h-9.157zM41.62 73.773h9.154v9.506H41.62zM28.226 73.773h9.158v9.506h-9.158zM14.834 73.773h9.156v9.506h-9.156zM55.013 87.025h9.157v9.502h-9.157zM41.62 87.025h9.154v9.502H41.62zM28.226 87.025h9.158v9.502h-9.158zM14.834 87.025h9.156v9.502h-9.156zM69.336 28.783a2.7 2.7 0 0 0 2.697-2.696V2.696a2.696 2.696 0 0 0-5.391 0v23.39a2.695 2.695 0 0 0 2.694 2.697M22.416 28.783a2.695 2.695 0 0 0 2.696-2.696V2.696a2.696 2.696 0 0 0-5.39 0v23.39a2.694 2.694 0 0 0 2.694 2.697" fill="#010c80" data-fill-palette-color="accent"></path></svg></g></svg></g><g id="text-0"><path d="M5.61 81.977l0.138 0.536c-0.393 0.207-0.682 0.46-0.867 0.76-0.184 0.3-0.32 0.59-0.407 0.87v0c-0.266 0.855-0.208 1.521 0.176 1.998 0.384 0.476 0.984 0.842 1.801 1.096v0l13.804 4.298 2.326 0.42-0.903 2.9-2.153-0.975-13.805-4.297c-1.544-0.481-2.596-1.218-3.155-2.211-0.561-0.987-0.612-2.217-0.152-3.692v0c0.151-0.485 0.327-0.917 0.529-1.295 0.193-0.374 0.413-0.719 0.658-1.034v0zM9.16 91.756l-0.301 1.439-2.096-0.652 0.557-1.79 1.397-1.519-0.285-2.052 1.052-3.379 2.096 0.652-0.566 1.347z" fill="#010c80" data-fill-palette-color="accent"></path><path d="M42.328 56.168l-1.364 1.872-1.515-0.559-6.434-4.688c-0.632-0.461-1.227-0.762-1.786-0.904-0.558-0.142-1.141-0.046-1.748 0.289-0.604 0.329-1.268 0.991-1.992 1.985v0c-0.425 0.583-0.762 1.165-1.011 1.744-0.254 0.576-0.395 1.201-0.424 1.875v0l-0.52 0.204-1.702-1.24c0.282-0.853 0.611-1.61 0.986-2.272 0.371-0.656 0.745-1.244 1.122-1.762v0c1-1.372 1.96-2.31 2.881-2.813 0.921-0.503 1.847-0.656 2.778-0.458 0.931 0.198 1.909 0.672 2.935 1.42v0l5.721 4.168zM38.337 62.241v0c-0.508 0.697-1.121 1.3-1.84 1.811-0.728 0.511-1.534 0.789-2.417 0.831-0.889 0.039-1.822-0.298-2.8-1.01v0c-0.756-0.551-1.283-1.15-1.581-1.797-0.299-0.656-0.414-1.327-0.344-2.013 0.064-0.689 0.255-1.377 0.573-2.063 0.318-0.686 0.705-1.343 1.162-1.97v0c0.279-0.384 0.552-0.723 0.816-1.018 0.269-0.301 0.56-0.581 0.873-0.84v0l1.767-0.586 1.085 0.791c-0.521 0.249-0.993 0.575-1.418 0.976-0.425 0.402-0.856 0.902-1.293 1.502v0c-0.803 1.102-1.253 2.06-1.35 2.875-0.093 0.809 0.301 1.534 1.181 2.175v0c0.724 0.527 1.42 0.708 2.087 0.541 0.667-0.167 1.346-0.723 2.035-1.668v0c0.712-0.978 1.118-1.869 1.216-2.674 0.108-0.806 0.054-1.528-0.16-2.164v0l1.418 0.301 0.253 3.671c-0.147 0.372-0.326 0.759-0.535 1.16-0.21 0.401-0.452 0.791-0.728 1.169z" fill="#010c80" data-fill-palette-color="accent"></path><path d="M79.545 28.159l-2.609 1.576-0.964-2.159-3.793-6.283c-0.587-0.973-1.29-1.536-2.109-1.69-0.819-0.154-1.663 0.032-2.533 0.557v0c-0.773 0.466-1.34 1.008-1.702 1.624-0.367 0.62-0.618 1.22-0.751 1.801-0.125 0.583-0.204 1.033-0.239 1.351v0l-1.109-1.837 1.324-3.704c0.307-0.318 0.614-0.593 0.92-0.825 0.305-0.231 0.59-0.426 0.853-0.585v0c1.122-0.677 2.131-1.029 3.028-1.055 0.892-0.023 1.673 0.185 2.344 0.623 0.665 0.442 1.218 1.029 1.661 1.761v0l4.217 6.987zM63.502 37.844l-2.6 1.57-0.964-2.159-5.29-8.764-1.462-1.858 1.88-1.135 2.104 2.419 4.871 8.069zM71.528 32.999l-2.609 1.575-0.964-2.159-3.793-6.283c-0.587-0.973-1.282-1.541-2.083-1.705-0.807-0.161-1.646 0.022-2.516 0.547v0c-0.75 0.453-1.318 0.991-1.707 1.616-0.392 0.619-0.655 1.211-0.789 1.776-0.138 0.56-0.23 0.99-0.275 1.291v0l-1.047-1.734 1.316-3.699c0.393-0.37 0.76-0.681 1.099-0.933 0.34-0.252 0.633-0.452 0.879-0.601v0c1.053-0.636 2.011-0.956 2.874-0.962 0.863-0.006 1.624 0.214 2.284 0.659 0.653 0.449 1.201 1.039 1.643 1.772v0l4.218 6.987z" fill="#010c80" data-fill-palette-color="accent"></path><path d="M104.126 3.38v0c-0.461 0.078-0.879-0.004-1.252-0.246-0.381-0.247-0.615-0.628-0.702-1.142v0c-0.088-0.521 0.007-0.957 0.287-1.309 0.272-0.358 0.638-0.576 1.099-0.654v0c0.468-0.079 0.889 0.005 1.263 0.254 0.38 0.241 0.614 0.621 0.702 1.142v0c0.087 0.514-0.008 0.951-0.286 1.309-0.273 0.351-0.643 0.567-1.111 0.646zM108.997 20.188l-3.005 0.509-0.095-2.364-1.769-10.438-3.005 0.509-0.333-1.967 5.713-0.968 0.106 2.361 1.709 10.093z" fill="#010c80" data-fill-palette-color="accent"></path><path d="M148.395 22.541l-2.995-0.507 0.678-2.265 1.244-7.355c0.179-1.061 0.014-1.909-0.495-2.544-0.502-0.641-1.339-1.06-2.513-1.259v0c-0.923-0.156-1.733-0.154-2.431 0.006-0.705 0.159-1.293 0.371-1.765 0.637-0.465 0.267-0.823 0.498-1.073 0.693v0l0.282-1.671 3.516-1.846c0.398-0.028 0.806-0.037 1.225-0.027 0.412 0.009 0.829 0.049 1.25 0.121v0c0.923 0.156 1.763 0.461 2.52 0.914 0.751 0.452 1.318 1.108 1.701 1.965 0.377 0.857 0.45 1.968 0.22 3.332v0l-1.259 7.444zM138.351 20.842l-2.995-0.506 0.678-2.265 1.717-10.153 0.094-2.302 2.304 0.389 0.118 1.769-1.811 10.706z" fill="#010c80" data-fill-palette-color="accent"></path><path d="M176.959 35.482v0c-1.066-0.639-1.872-1.473-2.416-2.501-0.541-1.034-0.758-2.2-0.65-3.498 0.108-1.299 0.589-2.659 1.441-4.081v0c0.904-1.508 1.913-2.606 3.026-3.294 1.12-0.685 2.245-1.015 3.377-0.992 1.135 0.018 2.19 0.319 3.164 0.903v0c0.482 0.289 0.89 0.596 1.225 0.921 0.329 0.322 0.595 0.614 0.796 0.875v0l1.463 3.156-0.907 1.514c-0.091-0.538-0.253-1.06-0.487-1.567-0.232-0.497-0.552-0.978-0.96-1.44-0.403-0.46-0.939-0.89-1.61-1.292v0c-0.94-0.564-1.809-0.843-2.607-0.838-0.794-0.001-1.547 0.28-2.259 0.843-0.712 0.563-1.399 1.398-2.063 2.504v0c-0.973 1.622-1.392 3.031-1.258 4.226 0.139 1.198 0.928 2.228 2.367 3.09v0c0.682 0.409 1.3 0.666 1.852 0.772 0.556 0.1 1.058 0.108 1.505 0.025 0.447-0.083 0.845-0.226 1.193-0.431v0l-0.701 1.638-3.195 0.434c-0.373-0.106-0.751-0.236-1.135-0.388-0.384-0.152-0.771-0.345-1.161-0.579zM183.246 38.841l-1.987-1.191 0.405-1.534 8.97-14.963 0.951-2.153 2.615 1.567-1.451 1.854-8.547 14.258z" fill="#010c80" data-fill-palette-color="accent"></path><path d="M207.415 51.168v0c1.519-1.193 2.925-1.892 4.216-2.099 1.287-0.212 2.442-0.061 3.466 0.453 1.024 0.514 1.896 1.23 2.619 2.151v0c0.83 1.057 1.315 2.108 1.455 3.153 0.135 1.049-0.041 2.059-0.529 3.028-0.497 0.968-1.282 1.874-2.355 2.715v0c-0.305 0.239-0.601 0.446-0.889 0.622-0.288 0.175-0.561 0.33-0.82 0.465v0l-7.033-8.959 0.41-0.322 2.78 1.17 3.993 5.087c0.694-0.545 1.251-1.101 1.672-1.669 0.425-0.563 0.627-1.172 0.606-1.827-0.016-0.659-0.337-1.388-0.965-2.187v0c-0.652-0.831-1.349-1.346-2.092-1.544-0.738-0.194-1.511-0.144-2.317 0.149-0.808 0.303-1.64 0.79-2.497 1.463v0c-1.03 0.809-1.772 1.574-2.226 2.296-0.444 0.722-0.671 1.397-0.679 2.024-0.004 0.623 0.124 1.207 0.381 1.753 0.249 0.544 0.555 1.047 0.918 1.51v0c0.565 0.72 1.13 1.288 1.694 1.704 0.564 0.415 1.128 0.733 1.692 0.953v0l0.062 0.55-1.656 1.301c-0.54-0.341-1.092-0.757-1.656-1.25-0.555-0.491-1.099-1.075-1.631-1.753v0c-0.578-0.736-1.064-1.54-1.459-2.411-0.396-0.862-0.6-1.76-0.611-2.694-0.016-0.93 0.242-1.889 0.775-2.877 0.528-0.984 1.42-1.969 2.676-2.955z" fill="#010c80" data-fill-palette-color="accent"></path><path d="M221.67 91.374l-0.974-2.877 2.315-0.477 9.696-3.285 2.128-1.028 0.628 1.852-1.482 0.999 0.103 0.304-10.285 3.484zM230.497 87.431v0l2.915-0.987 2.907 1.736c0.466 0.583 0.818 1.226 1.056 1.929v0c0.107 0.317 0.194 0.647 0.261 0.991 0.063 0.353 0.081 0.728 0.053 1.125v0l-1.861 0.631-0.427-0.353c0.009-0.349-0.019-0.671-0.084-0.967-0.061-0.304-0.132-0.576-0.213-0.817v0c-0.369-1.089-0.951-1.88-1.746-2.372-0.795-0.493-1.749-0.798-2.861-0.916z" fill="#010c80" data-fill-palette-color="accent"></path><path d="M28.844 160.821l-0.444-0.376c0.212-0.417 0.309-0.812 0.29-1.184-0.019-0.372-0.075-0.708-0.169-1.008v0c-0.284-0.905-0.736-1.45-1.354-1.634-0.625-0.182-1.371-0.137-2.238 0.135v0l-14.616 4.592-2.279 1.042-0.968-3.08 2.466-0.449 14.615-4.592c1.639-0.515 3-0.508 4.084 0.02 1.088 0.52 1.878 1.561 2.369 3.124v0c0.16 0.51 0.269 0.991 0.327 1.442 0.049 0.447 0.066 0.88 0.05 1.298v0zM19.841 154.443l-0.606-1.428 2.219-0.697 0.595 1.894-0.295 2.173 1.485 1.615 1.124 3.577-2.219 0.697-0.322-1.527z" fill="#010c80" data-fill-palette-color="accent"></path><path d="M30.181 202.638l-1.44-1.977 1.052-1.349 6.824-4.97c0.665-0.484 1.162-0.987 1.493-1.509 0.325-0.518 0.418-1.135 0.277-1.852-0.141-0.716-0.595-1.601-1.363-2.654v0c-0.449-0.616-0.922-1.147-1.422-1.594-0.501-0.438-1.087-0.783-1.76-1.037v0l-0.038-0.581 1.808-1.316c0.767 0.566 1.423 1.142 1.967 1.73 0.544 0.588 1.017 1.157 1.418 1.709v0c1.059 1.453 1.691 2.725 1.897 3.815 0.207 1.09 0.059 2.074-0.442 2.951-0.502 0.878-1.295 1.713-2.382 2.504v0l-6.062 4.415zM25.354 196.641v0c-0.535-0.735-0.943-1.55-1.223-2.446-0.284-0.901-0.305-1.804-0.062-2.708 0.248-0.908 0.891-1.74 1.928-2.496v0c0.805-0.586 1.585-0.923 2.34-1.01 0.751-0.092 1.462 0.01 2.134 0.306 0.672 0.288 1.303 0.705 1.891 1.252 0.59 0.538 1.129 1.142 1.617 1.812v0c0.291 0.4 0.544 0.786 0.758 1.16 0.215 0.364 0.405 0.743 0.568 1.137v0l0.018 1.983-1.151 0.838c-0.082-0.601-0.259-1.184-0.529-1.748-0.266-0.559-0.632-1.157-1.095-1.794v0c-0.85-1.167-1.667-1.932-2.453-2.294-0.79-0.359-1.653-0.198-2.588 0.483v0c-0.767 0.559-1.175 1.203-1.222 1.932-0.052 0.724 0.289 1.588 1.02 2.593v0c0.756 1.037 1.523 1.739 2.303 2.106 0.776 0.361 1.521 0.538 2.235 0.531v0l-0.761 1.323-3.787-0.926c-0.325-0.276-0.657-0.584-0.996-0.924-0.339-0.34-0.654-0.71-0.945-1.11z" fill="#010c80" data-fill-palette-color="accent"></path><path d="M72.431 234.814l-2.758-1.66 1.541-1.975 4.013-6.665c0.621-1.031 0.799-1.969 0.536-2.814-0.263-0.845-0.853-1.544-1.77-2.096v0c-0.819-0.493-1.608-0.757-2.366-0.793-0.765-0.039-1.45 0.024-2.057 0.19-0.607 0.165-1.069 0.312-1.388 0.439v0l1.168-1.941 4.126-0.593c0.455 0.126 0.864 0.275 1.229 0.447 0.37 0.176 0.695 0.348 0.976 0.517v0c1.191 0.717 2.02 1.485 2.486 2.305 0.469 0.828 0.659 1.665 0.572 2.509-0.084 0.839-0.36 1.648-0.829 2.427v0l-4.463 7.413zM55.424 224.574l-2.766-1.666 1.549-1.969 5.601-9.303 1.011-2.281 1.993 1.199-1.221 3.174-5.151 8.555zM63.927 229.694l-2.766-1.665 1.549-1.97 4.014-6.666c0.621-1.031 0.808-1.964 0.561-2.798-0.246-0.835-0.828-1.528-1.744-2.08v0c-0.802-0.483-1.589-0.75-2.361-0.801-0.775-0.061-1.46-0.017-2.057 0.131-0.596 0.148-1.047 0.275-1.352 0.379v0l1.102-1.829 4.126-0.594c0.541 0.177 1.013 0.364 1.417 0.561 0.399 0.193 0.732 0.371 1.002 0.533v0c1.117 0.672 1.891 1.408 2.323 2.206 0.434 0.808 0.605 1.632 0.512 2.474-0.095 0.832-0.377 1.637-0.846 2.416v0l-4.464 7.412z" fill="#010c80" data-fill-palette-color="accent"></path><path d="M107.804 225.909v0c-0.488-0.082-0.88-0.311-1.176-0.686-0.29-0.374-0.388-0.835-0.296-1.381v0c0.093-0.554 0.338-0.96 0.734-1.219 0.403-0.258 0.848-0.345 1.335-0.263v0c0.488 0.082 0.88 0.311 1.176 0.686 0.29 0.374 0.388 0.838 0.295 1.391v0c-0.092 0.547-0.336 0.95-0.732 1.209-0.403 0.258-0.848 0.345-1.336 0.263zM106.823 244.431l-3.174-0.534 0.719-2.4 1.863-11.074-3.183-0.535 0.349-2.077 6.051 1.018-0.717 2.391-1.802 10.708z" fill="#010c80" data-fill-palette-color="accent"></path><path d="M151.346 241.943l-3.184 0.535-0.105-2.504-1.311-7.801c-0.188-1.121-0.646-1.911-1.374-2.372-0.729-0.467-1.717-0.596-2.962-0.387v0c-0.976 0.164-1.786 0.446-2.431 0.845-0.65 0.407-1.163 0.826-1.537 1.255-0.382 0.43-0.664 0.786-0.848 1.067v0l-0.297-1.77 2.88-3.066c0.391-0.174 0.796-0.327 1.215-0.458 0.418-0.131 0.852-0.235 1.3-0.31v0c0.982-0.165 1.93-0.151 2.843 0.041 0.913 0.192 1.709 0.652 2.387 1.379 0.677 0.72 1.137 1.805 1.38 3.255v0l1.325 7.89zM140.697 243.732l-3.184 0.534-0.105-2.503-1.809-10.768-0.707-2.332 2.453-0.411 0.727 1.728 1.906 11.351z" fill="#010c80" data-fill-palette-color="accent"></path><path d="M185.154 227.748v0c-1.136 0.679-2.322 1.014-3.557 1.005-1.23-0.012-2.426-0.392-3.589-1.138-1.16-0.755-2.191-1.887-3.092-3.396v0c-0.957-1.601-1.475-3.094-1.555-4.478-0.08-1.385 0.175-2.6 0.764-3.646 0.586-1.051 1.396-1.886 2.429-2.503v0c0.516-0.309 1.007-0.536 1.473-0.682 0.466-0.146 0.873-0.253 1.222-0.321v0l3.677 0.232 0.952 1.592c-0.544-0.181-1.11-0.287-1.697-0.317-0.585-0.04-1.193 0.016-1.826 0.168-0.633 0.152-1.305 0.441-2.017 0.867v0c-0.993 0.593-1.687 1.261-2.084 2.004-0.403 0.747-0.52 1.592-0.354 2.536 0.17 0.949 0.605 2.009 1.305 3.18v0c1.029 1.721 2.136 2.819 3.323 3.293 1.183 0.469 2.538 0.247 4.065-0.665v0c0.729-0.435 1.281-0.886 1.656-1.352 0.37-0.462 0.628-0.924 0.773-1.384 0.154-0.458 0.225-0.901 0.21-1.329v0l1.158 1.469-1.188 3.21c-0.287 0.288-0.598 0.576-0.934 0.861-0.335 0.286-0.707 0.551-1.114 0.794zM191.436 223.562l-2.1 1.255-1.233-1.144-9.484-15.87-1.542-1.975 2.771-1.656 1.009 2.294 9.037 15.121z" fill="#010c80" data-fill-palette-color="accent"></path><path d="M207.029 198.584v0c-1.606-1.266-2.676-2.539-3.208-3.817-0.542-1.278-0.675-2.507-0.401-3.687 0.274-1.18 0.796-2.258 1.566-3.234v0c0.881-1.118 1.843-1.879 2.885-2.283 1.042-0.404 2.123-0.475 3.244-0.214 1.121 0.262 2.251 0.842 3.39 1.74v0c0.325 0.257 0.613 0.513 0.862 0.769 0.248 0.247 0.477 0.491 0.687 0.733v0l-7.472 9.481-0.441-0.348 0.511-3.159 4.245-5.386c-0.73-0.575-1.44-1.007-2.131-1.297-0.692-0.299-1.375-0.356-2.048-0.171-0.664 0.183-1.329 0.698-1.995 1.543v0c-0.691 0.877-1.05 1.721-1.077 2.533-0.018 0.811 0.227 1.596 0.735 2.355 0.509 0.758 1.217 1.495 2.126 2.211v0c1.092 0.861 2.066 1.428 2.922 1.703 0.857 0.284 1.608 0.352 2.251 0.204 0.648-0.153 1.222-0.428 1.723-0.825 0.491-0.396 0.929-0.838 1.314-1.327v0c0.604-0.766 1.049-1.488 1.335-2.164 0.29-0.682 0.478-1.346 0.563-1.995v0l0.548-0.193 1.757 1.384c-0.219 0.645-0.513 1.315-0.883 2.011-0.364 0.7-0.828 1.407-1.391 2.121v0c-0.612 0.777-1.314 1.479-2.106 2.105-0.797 0.623-1.676 1.058-2.637 1.305-0.961 0.247-2.013 0.222-3.157-0.075-1.144-0.298-2.383-0.972-3.717-2.023z" fill="#010c80" data-fill-palette-color="accent"></path><path d="M236.083 163.375l-1.048 3.054-2.251-1.102-10.27-3.525-2.443-0.511 0.674-1.962 1.888 0.118 0.111-0.323 10.887 3.738zM226.117 160.971v0l-3.082-1.058-1.314-3.334c-0.01-0.795 0.112-1.562 0.366-2.302v0c0.115-0.335 0.259-0.671 0.43-1.008 0.164-0.333 0.388-0.658 0.675-0.977v0l1.963 0.674 0.134 0.566c-0.229 0.296-0.414 0.589-0.556 0.88-0.148 0.288-0.266 0.559-0.353 0.811v0c-0.397 1.157-0.419 2.199-0.066 3.126 0.345 0.931 0.946 1.805 1.803 2.622z" fill="#010c80" data-fill-palette-color="accent"></path><path d="M1.628 124.702c0-4.582 3.714-8.296 8.295-8.296 4.582 0 8.296 3.714 8.296 8.296 0 4.582-3.714 8.296-8.296 8.296-4.582 0-8.296-3.714-8.295-8.296z" fill="#010c80" data-fill-palette-color="accent"></path><path d="M226.212 124.702c0-4.582 3.714-8.296 8.296-8.296 4.582 0 8.296 3.714 8.296 8.296 0 4.582-3.714 8.296-8.296 8.296-4.582 0-8.296-3.714-8.296-8.296z" fill="#010c80" data-fill-palette-color="accent"></path></g><g id="text-1"></g></svg></g></svg></g>
</svg>