<svg width="395.52" viewBox="4.5 -36.400001525878906 215.02999877929688 37" height="68.05040688212043" data-palette-color="#010c80"><path d="M9.8 0L4.5 0 5-4 5-31 4.5-35 24.5-35 24.5-30.6 21.5-31.1 9.3-31.1 9.3-19.1 23.5-19.1 23.5-14.8 20.5-15.2 9.3-15.2 9.3-4 9.8 0ZM50.45 0L46.5 0 45.75-2.65 45.75-16.25Q45.75-18.25 45.2-19.63 44.65-21 43.05-21.75 41.45-22.5 38.3-22.5L38.3-22.5Q36.45-22.5 34.87-22.15 33.3-21.8 31.85-20.85L31.85-20.85 31.05-21.35 31.05-24.95Q33.25-25.65 35.17-25.88 37.1-26.1 38.75-26.1L38.75-26.1Q43.1-26.1 45.52-24.95 47.95-23.8 48.95-21.58 49.95-19.35 49.95-16.1L49.95-16.1 49.95-4 50.45 0ZM38.05 0.6L38.05 0.6Q35.85 0.6 33.7-0.13 31.55-0.85 30.12-2.63 28.7-4.4 28.7-7.5L28.7-7.5Q28.7-9.9 29.6-11.5 30.5-13.1 32.02-14 33.55-14.9 35.45-15.28 37.35-15.65 39.35-15.65L39.35-15.65Q40.55-15.65 41.57-15.55 42.6-15.45 43.6-15.2L43.6-15.2 46.2-13.35 46.2-11.05Q44.9-11.75 43.42-12.03 41.95-12.3 40.05-12.3L40.05-12.3Q36.55-12.3 34.72-11.28 32.9-10.25 32.9-7.45L32.9-7.45Q32.9-5.15 34.25-4.03 35.6-2.9 38.6-2.9L38.6-2.9Q41.7-2.9 43.52-3.9 45.35-4.9 46.35-6.3L46.35-6.3 47.35-4.05 42.55 0Q41.55 0.25 40.4 0.43 39.25 0.6 38.05 0.6ZM94.25 0L89.05 0 89.55-4 89.55-16.55Q89.55-19.45 87.95-20.88 86.34-22.3 83.75-22.3L83.75-22.3Q81.45-22.3 79.82-21.43 78.2-20.55 77.15-19.45 76.09-18.35 75.59-17.7L75.59-17.7 75.59-21.35 80.8-25.6Q81.9-25.9 82.87-26 83.84-26.1 84.65-26.1L84.65-26.1Q88-26.1 90-24.98 92-23.85 92.87-22 93.75-20.15 93.75-17.95L93.75-17.95 93.75-4 94.25 0ZM62.25 0L57.05 0 57.55-4 57.55-21.5 57.05-25.5 60.8-25.5 61.75-20.1 61.75-4 62.25 0ZM78.25 0L73.05 0 73.55-4 73.55-16.55Q73.55-19.45 72-20.88 70.45-22.3 67.84-22.3L67.84-22.3Q65.59-22.3 63.92-21.45 62.25-20.6 61.2-19.55 60.15-18.5 59.65-17.9L59.65-17.9 59.65-21.35 64.84-25.6Q66.2-25.9 67.27-26 68.34-26.1 69.09-26.1L69.09-26.1Q72.25-26.1 74.15-24.98 76.05-23.85 76.9-22 77.75-20.15 77.75-17.95L77.75-17.95 77.75-4 78.25 0ZM106.54-29.7L106.54-29.7Q105.34-29.7 104.49-30.48 103.64-31.25 103.64-32.6L103.64-32.6Q103.64-33.95 104.49-34.73 105.34-35.5 106.54-35.5L106.54-35.5Q107.74-35.5 108.59-34.73 109.44-33.95 109.44-32.6L109.44-32.6Q109.44-31.25 108.59-30.48 107.74-29.7 106.54-29.7ZM109.94 0L104.74 0 105.24-4 105.24-22.1 100.04-22.1 100.04-25.5 109.94-25.5 109.44-21.5 109.44-4 109.94 0ZM140.64 0L135.44 0 135.94-4 135.94-16.75Q135.94-19.5 134.39-20.9 132.84-22.3 129.79-22.3L129.79-22.3Q127.39-22.3 125.69-21.6 123.99-20.9 122.92-20.03 121.84-19.15 121.29-18.55L121.29-18.55 121.29-21.45 126.69-25.55Q127.69-25.8 128.74-25.95 129.79-26.1 130.89-26.1L130.89-26.1Q133.29-26.1 135.39-25.28 137.49-24.45 138.82-22.45 140.14-20.45 140.14-16.9L140.14-16.9 140.14-4 140.64 0ZM123.24 0L118.04 0 118.54-4 118.54-21.6 118.04-25.5 122.04-25.5 122.74-22.55 122.74-4 123.24 0ZM157.89 0.6L157.89 0.6Q154.69 0.6 152.14-0.95 149.59-2.5 148.11-5.5 146.64-8.5 146.64-12.75L146.64-12.75Q146.64-17.25 148.19-20.23 149.74-23.2 152.26-24.65 154.79-26.1 157.69-26.1L157.69-26.1Q159.14-26.1 160.29-25.83 161.44-25.55 162.24-25.25L162.24-25.25 167.14-21.9 167.14-18.9Q166.24-19.95 165.06-20.75 163.89-21.55 162.39-22.03 160.89-22.5 158.89-22.5L158.89-22.5Q156.09-22.5 154.34-21.45 152.59-20.4 151.76-18.23 150.94-16.05 150.94-12.75L150.94-12.75Q150.94-7.9 152.81-5.45 154.69-3 158.99-3L158.99-3Q161.04-3 162.39-3.5 163.74-4 164.61-4.78 165.49-5.55 165.99-6.45L165.99-6.45 166.39-3.45 162.09 0Q161.14 0.25 160.09 0.43 159.04 0.6 157.89 0.6ZM170.04 0L166.09 0 165.34-2.6 165.34-32.4 164.84-36.4 170.04-36.4 169.54-32.4 169.54-4 170.04 0ZM176.04-12.8L176.04-12.8Q176.04-17.75 177.66-20.68 179.29-23.6 181.94-24.85 184.59-26.1 187.59-26.1L187.59-26.1Q191.04-26.1 193.36-24.73 195.69-23.35 196.86-20.83 198.04-18.3 198.04-14.8L198.04-14.8Q198.04-13.8 197.94-12.95 197.84-12.1 197.69-11.35L197.69-11.35 178.24-11.35 178.24-12.25 182.74-14.75 193.79-14.75Q193.79-17 193.31-18.75 192.84-20.5 191.49-21.5 190.14-22.5 187.54-22.5L187.54-22.5Q184.84-22.5 183.26-21.33 181.69-20.15 181.01-18.05 180.34-15.95 180.34-13.15L180.34-13.15Q180.34-9.8 181.09-7.75 181.84-5.7 183.09-4.7 184.34-3.7 185.84-3.35 187.34-3 188.84-3L188.84-3Q191.19-3 192.91-3.48 194.64-3.95 195.99-4.75L195.99-4.75 196.79-4.25 196.79-0.65Q195.24-0.1 193.36 0.25 191.49 0.6 189.29 0.6L189.29 0.6Q186.89 0.6 184.51 0.03 182.14-0.55 180.24-2 178.34-3.45 177.19-6.08 176.04-8.7 176.04-12.8ZM209.38 0L204.18 0 204.68-4 204.68-21.5 204.18-25.5 207.53-25.5 208.33-22.55 208.88-22.55 208.88-4 209.38 0ZM207.83-16.45L207.83-16.45 207.83-21.7 212.23-25.45Q214.03-26.1 215.93-26.1L215.93-26.1Q216.78-26.1 217.68-25.98 218.58-25.85 219.53-25.45L219.53-25.45 219.53-22.1 218.73-21.6Q217.88-21.9 217.11-22 216.33-22.1 215.68-22.1L215.68-22.1Q212.73-22.1 210.88-20.58 209.03-19.05 207.83-16.45Z" opacity="1" transform="matrix(1,0,0,1,0,0)" fill="#010c80" class="wordmark-text-0" data-fill-palette-color="primary" id="text-0"></path></svg>